<svg xmlns="http://www.w3.org/2000/svg" viewBox="0 0 200 200" fill="none">
  <!-- Trunk -->
  <path d="M95 190 C90 160, 85 140, 88 120 C90 110, 92 105, 95 100 C97 95, 100 90, 102 85" stroke="#8B6914" stroke-width="0" fill="#8B6914"/>
  <path d="M82 190 C82 175, 80 155, 82 135 C84 120, 88 110, 93 100 C98 90, 103 82, 108 75 L115 80 C110 88, 105 95, 102 105 C98 118, 97 130, 98 145 C99 160, 100 175, 100 190 Z" fill="#7A5C2B"/>
  <path d="M88 190 C87 172, 86 155, 88 138 C90 122, 94 110, 98 100 C102 92, 106 84, 110 77 L115 80 C111 87, 107 94, 104 103 C100 115, 97 128, 96 143 C95 158, 96 173, 96 190 Z" fill="#96722E"/>
  <!-- Branch right -->
  <path d="M100 115 C108 108, 118 102, 130 100" stroke="#7A5C2B" stroke-width="6" stroke-linecap="round" fill="none"/>
  <!-- Main canopy - back layer (darker green) -->
  <ellipse cx="115" cy="62" rx="42" ry="38" fill="#5B9A2F"/>
  <!-- Canopy - middle layer -->
  <ellipse cx="85" cy="55" rx="38" ry="35" fill="#6DB33F"/>
  <!-- Canopy - right cluster -->
  <ellipse cx="130" cy="72" rx="32" ry="30" fill="#6DB33F"/>
  <!-- Canopy - top highlight -->
  <ellipse cx="100" cy="42" rx="30" ry="26" fill="#82C94F"/>
  <!-- Canopy - front highlight -->
  <ellipse cx="78" cy="65" rx="28" ry="24" fill="#7EC544"/>
  <!-- Canopy - top bright spot -->
  <ellipse cx="95" cy="35" rx="20" ry="18" fill="#92D45E"/>
</svg>
